<mxfile host="app.diagrams.net" modified="2022-06-16T11:55:46.886Z" agent="5.0 (X11; Linux x86_64) AppleWebKit/537.36 (KHTML, like Gecko) Chrome/101.0.0.0 Safari/537.36" etag="OwoWnTTVcVMcSZjhRcdJ" version="20.0.1" type="github">
  <diagram id="qkKUPPLN9vZrz6hFBC61" name="Page-1">
    <mxGraphModel dx="1350" dy="773" grid="1" gridSize="10" guides="1" tooltips="1" connect="1" arrows="1" fold="1" page="1" pageScale="1" pageWidth="850" pageHeight="1100" math="0" shadow="0">
      <root>
        <mxCell id="0" />
        <mxCell id="1" parent="0" />
        <mxCell id="y3hfhmXPW_wXuebZ2C54-1" value="&lt;b&gt;&lt;font style=&quot;font-size: 14px;&quot;&gt;PC端或服务器端&lt;/font&gt;&lt;/b&gt;" style="rounded=1;whiteSpace=wrap;html=1;" parent="1" vertex="1">
          <mxGeometry x="335" y="400" width="120" height="60" as="geometry" />
        </mxCell>
        <mxCell id="y3hfhmXPW_wXuebZ2C54-2" value="AGV #1" style="rounded=1;whiteSpace=wrap;html=1;" parent="1" vertex="1">
          <mxGeometry x="210" y="870" width="120" height="60" as="geometry" />
        </mxCell>
        <mxCell id="y3hfhmXPW_wXuebZ2C54-3" value="AGV #n" style="rounded=1;whiteSpace=wrap;html=1;" parent="1" vertex="1">
          <mxGeometry x="560" y="870" width="120" height="60" as="geometry" />
        </mxCell>
        <mxCell id="y3hfhmXPW_wXuebZ2C54-4" value="MQTT&amp;nbsp; &amp;nbsp;broker代理服务器" style="rounded=1;whiteSpace=wrap;html=1;" parent="1" vertex="1">
          <mxGeometry x="370" y="780" width="120" height="60" as="geometry" />
        </mxCell>
        <mxCell id="y3hfhmXPW_wXuebZ2C54-5" value="" style="shape=flexArrow;endArrow=classic;startArrow=classic;html=1;rounded=0;exitX=0.5;exitY=0;exitDx=0;exitDy=0;" parent="1" source="y3hfhmXPW_wXuebZ2C54-2" edge="1">
          <mxGeometry width="100" height="100" relative="1" as="geometry">
            <mxPoint x="300" y="910" as="sourcePoint" />
            <mxPoint x="370" y="820" as="targetPoint" />
          </mxGeometry>
        </mxCell>
        <mxCell id="y3hfhmXPW_wXuebZ2C54-10" value="" style="endArrow=none;dashed=1;html=1;dashPattern=1 3;strokeWidth=2;rounded=0;" parent="1" edge="1">
          <mxGeometry width="50" height="50" relative="1" as="geometry">
            <mxPoint x="340" y="900" as="sourcePoint" />
            <mxPoint x="550" y="900" as="targetPoint" />
          </mxGeometry>
        </mxCell>
        <mxCell id="y3hfhmXPW_wXuebZ2C54-11" value="" style="shape=flexArrow;endArrow=classic;startArrow=classic;html=1;rounded=0;entryX=1;entryY=0.5;entryDx=0;entryDy=0;" parent="1" target="y3hfhmXPW_wXuebZ2C54-4" edge="1">
          <mxGeometry width="100" height="100" relative="1" as="geometry">
            <mxPoint x="620" y="870" as="sourcePoint" />
            <mxPoint x="720" y="770" as="targetPoint" />
          </mxGeometry>
        </mxCell>
        <mxCell id="y3hfhmXPW_wXuebZ2C54-13" value="&lt;font style=&quot;font-size: 18px;&quot;&gt;&lt;b&gt;Telegraf&lt;br&gt;（go,可运行在设备端)&lt;/b&gt;&lt;/font&gt;" style="ellipse;whiteSpace=wrap;html=1;fontSize=14;" parent="1" vertex="1">
          <mxGeometry x="330" y="540" width="130" height="90" as="geometry" />
        </mxCell>
        <mxCell id="y3hfhmXPW_wXuebZ2C54-14" value="数据库" style="shape=datastore;whiteSpace=wrap;html=1;fontSize=14;" parent="1" vertex="1">
          <mxGeometry x="350" y="170" width="80" height="100" as="geometry" />
        </mxCell>
        <mxCell id="y3hfhmXPW_wXuebZ2C54-15" value="PostgreSQL" style="text;html=1;strokeColor=none;fillColor=none;align=center;verticalAlign=middle;whiteSpace=wrap;rounded=0;fontSize=14;fontStyle=1" parent="1" vertex="1">
          <mxGeometry x="480" y="180" width="60" height="30" as="geometry" />
        </mxCell>
        <mxCell id="y3hfhmXPW_wXuebZ2C54-16" value="InfluxDB" style="text;html=1;strokeColor=none;fillColor=none;align=center;verticalAlign=middle;whiteSpace=wrap;rounded=0;fontSize=14;" parent="1" vertex="1">
          <mxGeometry x="470" y="218" width="60" height="30" as="geometry" />
        </mxCell>
        <mxCell id="y3hfhmXPW_wXuebZ2C54-17" value="Mysql" style="text;html=1;strokeColor=none;fillColor=none;align=center;verticalAlign=middle;whiteSpace=wrap;rounded=0;fontSize=14;" parent="1" vertex="1">
          <mxGeometry x="470" y="250" width="60" height="30" as="geometry" />
        </mxCell>
        <mxCell id="y3hfhmXPW_wXuebZ2C54-18" value="网页端（Grafana)" style="shape=loopLimit;whiteSpace=wrap;html=1;fontSize=14;" parent="1" vertex="1">
          <mxGeometry x="338" y="30" width="100" height="80" as="geometry" />
        </mxCell>
        <mxCell id="y3hfhmXPW_wXuebZ2C54-20" value="" style="shape=flexArrow;endArrow=classic;startArrow=classic;html=1;rounded=0;fontSize=14;entryX=0.5;entryY=1;entryDx=0;entryDy=0;exitX=0.45;exitY=0.017;exitDx=0;exitDy=0;exitPerimeter=0;" parent="1" source="y3hfhmXPW_wXuebZ2C54-1" target="y3hfhmXPW_wXuebZ2C54-14" edge="1">
          <mxGeometry width="100" height="100" relative="1" as="geometry">
            <mxPoint x="390" y="390" as="sourcePoint" />
            <mxPoint x="220" y="280" as="targetPoint" />
          </mxGeometry>
        </mxCell>
        <mxCell id="y3hfhmXPW_wXuebZ2C54-22" value="日志,修改logger,增加输出到统一文件或telegraf中" style="text;html=1;strokeColor=none;fillColor=none;align=center;verticalAlign=middle;whiteSpace=wrap;rounded=0;fontSize=14;" parent="1" vertex="1">
          <mxGeometry x="640" y="550" width="70" height="45" as="geometry" />
        </mxCell>
        <mxCell id="y3hfhmXPW_wXuebZ2C54-23" value="异常日志" style="text;html=1;strokeColor=none;fillColor=none;align=center;verticalAlign=middle;whiteSpace=wrap;rounded=0;fontSize=14;" parent="1" vertex="1">
          <mxGeometry x="650" y="620" width="60" height="30" as="geometry" />
        </mxCell>
        <mxCell id="y3hfhmXPW_wXuebZ2C54-24" value="系统设备信息和日志" style="rounded=0;whiteSpace=wrap;html=1;fontSize=14;" parent="1" vertex="1">
          <mxGeometry x="80" y="565" width="120" height="60" as="geometry" />
        </mxCell>
        <mxCell id="y3hfhmXPW_wXuebZ2C54-25" value="" style="shape=flexArrow;endArrow=classic;html=1;rounded=0;fontSize=14;entryX=0;entryY=0.5;entryDx=0;entryDy=0;exitX=1;exitY=0.25;exitDx=0;exitDy=0;" parent="1" source="y3hfhmXPW_wXuebZ2C54-24" target="y3hfhmXPW_wXuebZ2C54-13" edge="1">
          <mxGeometry width="50" height="50" relative="1" as="geometry">
            <mxPoint x="200" y="630" as="sourcePoint" />
            <mxPoint x="250" y="580" as="targetPoint" />
          </mxGeometry>
        </mxCell>
        <mxCell id="y3hfhmXPW_wXuebZ2C54-27" value="存储日志" style="shape=dataStorage;whiteSpace=wrap;html=1;fixedSize=1;fontSize=14;" parent="1" vertex="1">
          <mxGeometry x="550" y="555" width="100" height="80" as="geometry" />
        </mxCell>
        <mxCell id="y3hfhmXPW_wXuebZ2C54-28" value="" style="shape=flexArrow;endArrow=classic;startArrow=classic;html=1;rounded=0;fontSize=14;entryX=0;entryY=0.5;entryDx=0;entryDy=0;" parent="1" source="y3hfhmXPW_wXuebZ2C54-13" target="y3hfhmXPW_wXuebZ2C54-27" edge="1">
          <mxGeometry width="100" height="100" relative="1" as="geometry">
            <mxPoint x="450" y="680" as="sourcePoint" />
            <mxPoint x="591.4213562373095" y="580" as="targetPoint" />
          </mxGeometry>
        </mxCell>
        <mxCell id="y3hfhmXPW_wXuebZ2C54-29" value="&lt;font style=&quot;font-size: 14px;&quot;&gt;&lt;b&gt;配置设备参数或状态 mqtt/http&lt;br&gt;gRPC通讯框架&lt;br&gt;&lt;/b&gt;&lt;/font&gt;" style="text;html=1;strokeColor=none;fillColor=none;align=center;verticalAlign=middle;whiteSpace=wrap;rounded=0;fontSize=14;" parent="1" vertex="1">
          <mxGeometry x="520" y="650" width="120" height="60" as="geometry" />
        </mxCell>
        <mxCell id="y3hfhmXPW_wXuebZ2C54-30" value="" style="shape=doubleArrow;direction=south;whiteSpace=wrap;html=1;fontSize=14;" parent="1" vertex="1">
          <mxGeometry x="367" y="110" width="40" height="60" as="geometry" />
        </mxCell>
        <mxCell id="5nn3skYNBYsa-fbUHkOk-1" value="" style="curved=1;endArrow=classic;html=1;rounded=0;entryX=0.15;entryY=0.95;entryDx=0;entryDy=0;entryPerimeter=0;" parent="1" target="y3hfhmXPW_wXuebZ2C54-14" edge="1">
          <mxGeometry width="50" height="50" relative="1" as="geometry">
            <mxPoint x="370" y="540" as="sourcePoint" />
            <mxPoint x="420" y="490" as="targetPoint" />
            <Array as="points">
              <mxPoint x="420" y="540" />
              <mxPoint x="280" y="480" />
            </Array>
          </mxGeometry>
        </mxCell>
        <mxCell id="5nn3skYNBYsa-fbUHkOk-2" value="" style="endArrow=classic;startArrow=classic;html=1;rounded=0;entryX=0.5;entryY=1;entryDx=0;entryDy=0;" parent="1" target="y3hfhmXPW_wXuebZ2C54-1" edge="1">
          <mxGeometry width="50" height="50" relative="1" as="geometry">
            <mxPoint x="400" y="540" as="sourcePoint" />
            <mxPoint x="450" y="460" as="targetPoint" />
          </mxGeometry>
        </mxCell>
        <mxCell id="5nn3skYNBYsa-fbUHkOk-3" value="" style="shape=flexArrow;endArrow=classic;startArrow=classic;html=1;rounded=0;exitX=0.5;exitY=0;exitDx=0;exitDy=0;" parent="1" source="y3hfhmXPW_wXuebZ2C54-4" target="y3hfhmXPW_wXuebZ2C54-13" edge="1">
          <mxGeometry width="100" height="100" relative="1" as="geometry">
            <mxPoint x="370" y="720" as="sourcePoint" />
            <mxPoint x="470" y="620" as="targetPoint" />
          </mxGeometry>
        </mxCell>
        <mxCell id="hC72RPgkDfKlt4CtgjDi-1" value="&lt;font style=&quot;font-size: 12px;&quot;&gt;ELK日志处理&lt;/font&gt;" style="text;html=1;strokeColor=none;fillColor=none;align=center;verticalAlign=middle;whiteSpace=wrap;rounded=0;fontSize=18;" parent="1" vertex="1">
          <mxGeometry x="723" y="565" width="60" height="30" as="geometry" />
        </mxCell>
      </root>
    </mxGraphModel>
  </diagram>
</mxfile>
